# xmcd
#
# Track frame offsets:
#	151
#	17937
#	36831
#	57370
#	74634
#	96393
#	115699
#	135723
#	155880
#	178620
#
# Disc length: 2567 seconds
#
# Revision: 0
# Processed by: cddbd v1.4PL0 Copyright (c) Steve Scherf et al.
# Submitted via: audiograbber 1.81.01
#
DISCID=930a050a
DTITLE=FRANCO BASTELLI - CANTO L'AMORE
DYEAR=1900
DGENRE=Folk
TTITLE0=AMANTE VAGABONDO
TTITLE1=TRAMONTO ZINGARO
TTITLE2=AMO LA DONNA TUA
TTITLE3=BUGIARDO AMORE
TTITLE4=TI AMO ANCORA
TTITLE5=SEI BELLISSIMA
TTITLE6=VISO D'ANGELO
TTITLE7=DOLCE VELENO
TTITLE8=ROSALINA
TTITLE9=CANCELLI
EXTD=
EXTT0=
EXTT1=
EXTT2=
EXTT3=
EXTT4=
EXTT5=
EXTT6=
EXTT7=
EXTT8=
EXTT9=
PLAYORDER=
